<?xml version="1.0" encoding="UTF-8"?>
<!DOCTYPE svg PUBLIC "-//W3C//DTD SVG 1.1//EN" "http://www.w3.org/Graphics/SVG/1.1/DTD/svg11.dtd">
<!-- Creator: CorelDRAW -->
<svg xmlns="http://www.w3.org/2000/svg" xml:space="preserve" width="0.109425in" height="0.109406in" version="1.1" style="shape-rendering:geometricPrecision; text-rendering:geometricPrecision; image-rendering:optimizeQuality; fill-rule:evenodd; clip-rule:evenodd"
viewBox="0 0 0.19 0.19"
 xmlns:xlink="http://www.w3.org/1999/xlink"
 xmlns:xodm="http://www.corel.com/coreldraw/odm/2003">
 <defs>
  <style type="text/css">
   <![CDATA[
    .fil0 {fill:#FEFEFE}
   ]]>
  </style>
 </defs>
 <g id="Layer_x0020_1">
  <metadata id="CorelCorpID_0Corel-Layer"/>
  <g id="_1881779171088">
   <path class="fil0" d="M0.11 0.11c0.01,-0 0.02,0.01 0.02,0.01 0,0.01 -0.01,0.02 -0.02,0.02 -0.02,0.01 -0.03,-0.03 -0.01,-0.04zm-0.05 -0.01c0.01,-0 0.02,0.01 0.02,0.02 0,0.01 -0.01,0.02 -0.02,0.02 -0.01,0 -0.02,-0.01 -0.02,-0.02 -0,-0.01 0.01,-0.02 0.02,-0.02zm0.03 -0.01c0.01,-0 0.01,0 0.01,0.01 0,0.01 -0,0.01 -0.01,0.01 -0.01,0 -0.02,-0.01 -0.01,-0.02zm0.03 -0.03c0.01,-0 0.02,0.01 0.02,0.02 0,0.01 -0.01,0.02 -0.02,0.02 -0.02,0.01 -0.03,-0.03 -0.01,-0.04zm-0.05 -0.01c0.01,-0 0.02,0.01 0.02,0.02 0,0.01 -0.01,0.02 -0.02,0.02 -0.01,0 -0.02,-0.01 -0.02,-0.02 -0,-0.01 0.01,-0.02 0.02,-0.02zm0.02 -0.02c-0.01,0 -0.02,0 -0.03,0.01 -0,0 -0.01,0 -0.01,0.01 -0.01,0.01 -0.02,0.02 -0.03,0.03 -0.01,0.02 -0.01,0.04 0,0.06 0.02,0.04 0.08,0.06 0.12,0.03 0.03,-0.02 0.04,-0.06 0.02,-0.1 -0.01,-0.03 -0.04,-0.05 -0.07,-0.04z"/>
   <path class="fil0" d="M0.1 0.18c0,0 0.02,0 0.02,0.01 0.02,0 0.03,-0.01 0.03,-0.02 0,-0 0.01,-0.02 0.01,-0.02 -0.01,0.01 -0.01,0.01 -0.01,0.02 -0.01,0.01 -0.03,0.02 -0.05,0.02z"/>
   <path class="fil0" d="M0.18 0.08c0,-0 0,-0.02 0.01,-0.02 0,-0.02 -0.01,-0.03 -0.02,-0.03 -0,-0 -0.02,-0.01 -0.02,-0.01 0,0 0.01,0.01 0.01,0.01 0,0 0,0 0,0 0.01,0.01 0.02,0.03 0.02,0.05z"/>
   <path class="fil0" d="M0.05 0.17c-0,-0 -0,-0 -0.01,-0.01 -0.02,-0.01 -0.03,-0.04 -0.03,-0.06 -0,0 -0,0.02 -0.01,0.02 -0,0.02 0.01,0.03 0.02,0.03 0,0 0.02,0.01 0.02,0.01z"/>
   <path class="fil0" d="M0.02 0.05c0,-0 0.01,-0.01 0.01,-0.01 0,-0 0,-0 0,-0 0,-0 0,-0 0,-0 0,-0 0,-0 0.01,-0.01 0.01,-0.01 0.02,-0.01 0.04,-0.01 -0,-0 -0.02,-0 -0.02,-0.01 -0.02,-0 -0.03,0.01 -0.03,0.02 -0,0 -0.01,0.02 -0.01,0.02z"/>
  </g>
 </g>
</svg>
