<?xml version="1.0" encoding="UTF-8"?>
<!DOCTYPE svg PUBLIC "-//W3C//DTD SVG 1.1//EN" "http://www.w3.org/Graphics/SVG/1.1/DTD/svg11.dtd">
<!-- Creator: CorelDRAW -->
<svg xmlns="http://www.w3.org/2000/svg" xml:space="preserve" width="0.105992in" height="0.106248in" version="1.1" style="shape-rendering:geometricPrecision; text-rendering:geometricPrecision; image-rendering:optimizeQuality; fill-rule:evenodd; clip-rule:evenodd"
viewBox="0 0 0.18 0.18"
 xmlns:xlink="http://www.w3.org/1999/xlink"
 xmlns:xodm="http://www.corel.com/coreldraw/odm/2003">
 <defs>
  <style type="text/css">
   <![CDATA[
    .fil0 {fill:#FEFEFE}
   ]]>
  </style>
 </defs>
 <g id="Layer_x0020_1">
  <metadata id="CorelCorpID_0Corel-Layer"/>
  <g id="_1881774521728">
   <path class="fil0" d="M0.05 0.15l0 0c0.01,0.01 0.02,0.01 0.04,0.01 0.04,0 0.07,-0.03 0.07,-0.07 0,-0.04 -0.03,-0.07 -0.07,-0.07 -0.04,0 -0.07,0.03 -0.07,0.07 0,0.01 0,0.03 0.01,0.04l0 0 -0.01 0.03 0.03 -0.01zm-0.05 0.03l0.01 -0.05c-0.01,-0.01 -0.01,-0.03 -0.01,-0.04 0,-0.05 0.04,-0.09 0.09,-0.09 0.05,0 0.09,0.04 0.09,0.09 0,0.05 -0.04,0.09 -0.09,0.09 -0.01,0 -0.03,-0 -0.04,-0.01l-0.05 0.01z"/>
   <path class="fil0" d="M0.12 0.1c-0,-0 -0.01,-0 -0.01,-0 -0,0 -0.01,0.01 -0.01,0.01 -0,0 -0,0 -0,0 -0.01,-0 -0.02,-0.01 -0.03,-0.02 -0,-0 -0,-0 0,-0 0,-0 0,-0.01 0.01,-0.01 0,-0 -0,-0.01 -0,-0.01 -0,-0 -0,-0.01 -0.01,-0.01 -0,-0 -0.01,-0 -0.01,0 -0.01,0 -0.01,0.01 -0.01,0.02 0,0 0,0 0,0.01 0,0 0,0.01 0.01,0.01 0,0 0,0.01 0.01,0.01 0.01,0.01 0.01,0.02 0.02,0.02 0,0 0.01,0.01 0.02,0.01 0.01,0 0.01,0 0.02,0 0.01,-0 0.01,-0.01 0.02,-0.01 0,-0 0,-0 0,-0.01 -0,-0 -0.01,-0.01 -0.01,-0.01z"/>
  </g>
 </g>
</svg>
